<?xml version="1.0" encoding="UTF-8" standalone="no"?>
<!DOCTYPE svg PUBLIC "-//W3C//DTD SVG 1.1//EN" "http://www.w3.org/Graphics/SVG/1.1/DTD/svg11.dtd">
<svg version="1.1" xmlns="http://www.w3.org/2000/svg" xmlns:xlink="http://www.w3.org/1999/xlink" preserveAspectRatio="xMidYMid meet" viewBox="199 49 104 104" width="100" height="100"><defs><path d="M200 150L200 127.16L206.57 127.16L206.87 128.12L207.5 129.26L208.34 130.26L209.35 131.08L210.51 131.7L211.79 132.1L213.17 132.23L214.54 132.1L215.83 131.7L216.99 131.08L218 130.26L218.83 129.26L219.46 128.12L219.86 126.86L220 125.5L219.86 124.14L219.46 122.88L218.83 121.74L218 120.74L216.99 119.92L215.83 119.3L214.54 118.9L213.17 118.77L211.79 118.9L210.51 119.3L209.35 119.92L208.34 120.74L207.5 121.74L207.15 122.38L200 122.38L200 102.16L207.91 102.16L207.97 102.47L208.47 103.7L209.22 104.84L210.19 105.8L211.3 106.52L212.51 107.01L213.79 107.25L215.1 107.24L216.39 106.98L217.63 106.47L218.78 105.7L219.75 104.72L220.49 103.6L221 102.39L221.25 101.11L221.27 99.81L221.03 98.53L220.53 97.3L219.78 96.16L218.81 95.2L217.7 94.48L216.49 93.99L215.21 93.75L213.9 93.76L212.61 94.02L211.37 94.53L210.22 95.3L209.25 96.28L208.52 97.38L200 97.38L200 77.16L208.22 77.16L208.83 78.26L209.67 79.26L210.68 80.08L211.84 80.7L213.12 81.1L214.5 81.23L215.88 81.1L217.16 80.7L218.32 80.08L219.33 79.26L220.17 78.26L220.8 77.12L221.19 75.86L221.33 74.5L221.19 73.14L220.8 71.88L220.17 70.74L219.33 69.74L218.32 68.92L217.16 68.3L215.88 67.9L214.5 67.77L213.12 67.9L211.84 68.3L210.68 68.92L209.67 69.74L208.83 70.74L208.2 71.88L208.05 72.38L200 72.38L200 50L300 50L300 150L200 150ZM236.15 89.67L227.8 96.83L251.26 124.17L251.79 123.72L251.93 123.88L294.16 88.67L286.45 79.47L252.03 108.17L236.15 89.67Z" id="h8ahMt9lX"></path></defs><g><g><use xlink:href="#h8ahMt9lX" opacity="1" fill="#214151" fill-opacity="1"></use></g></g></svg>