<?xml version="1.0" encoding="UTF-8" standalone="no"?>
<!DOCTYPE svg PUBLIC "-//W3C//DTD SVG 1.1//EN" "http://www.w3.org/Graphics/SVG/1.1/DTD/svg11.dtd">
<svg version="1.1" xmlns="http://www.w3.org/2000/svg" xmlns:xlink="http://www.w3.org/1999/xlink" preserveAspectRatio="xMidYMid meet" viewBox="0 0 640 640" width="640" height="640"><defs><path d="M200 150L200 127.39L213.23 127.39L213.54 128.35L214.17 129.5L215 130.49L216.01 131.32L217.17 131.94L218.46 132.33L219.83 132.47L221.21 132.33L222.49 131.94L223.65 131.32L224.66 130.49L225.5 129.5L226.13 128.35L226.53 127.09L226.67 125.73L226.53 124.38L226.13 123.11L225.5 121.97L224.66 120.97L223.65 120.15L222.49 119.53L221.21 119.14L219.83 119L218.46 119.14L217.17 119.53L216.01 120.15L215 120.97L214.17 121.97L213.81 122.61L200 122.61L200 102.39L214.58 102.39L214.64 102.71L215.13 103.94L215.89 105.07L216.86 106.03L217.97 106.76L219.18 107.24L220.46 107.48L221.76 107.47L223.05 107.21L224.29 106.7L225.44 105.93L226.42 104.95L227.16 103.84L227.66 102.62L227.92 101.34L227.93 100.04L227.69 98.76L227.2 97.53L226.44 96.39L225.48 95.43L224.37 94.71L223.15 94.23L221.88 93.99L220.57 94L219.28 94.25L218.04 94.76L216.89 95.53L215.91 96.51L215.19 97.61L200 97.61L200 77.39L214.89 77.39L215.5 78.5L216.34 79.49L217.35 80.32L218.51 80.94L219.79 81.33L221.17 81.47L222.54 81.33L223.83 80.94L224.99 80.32L226 79.49L226.83 78.5L227.46 77.35L227.86 76.09L228 74.73L227.86 73.38L227.46 72.11L226.83 70.97L226 69.97L224.99 69.15L223.83 68.53L222.54 68.14L221.17 68L219.79 68.14L218.51 68.53L217.35 69.15L216.34 69.97L215.5 70.97L214.87 72.11L214.71 72.61L200 72.61L200 50L300 50L300 150L200 150ZM241.7 90.45L233.96 96.78L252.96 120L253.45 119.6L253.56 119.74L292.66 88.59L286.43 80.77L254.56 106.16L241.7 90.45Z" id="a1D7Rc0vSA"></path></defs><g><g><g><use xlink:href="#a1D7Rc0vSA" opacity="1" fill="#214151" fill-opacity="1"></use></g></g></g></svg>